<svg width="692" height="665" viewBox="0 0 692 665" fill="none" xmlns="http://www.w3.org/2000/svg">
<path d="M455.053 424.493C439.071 424.493 426.621 420.455 417.705 412.38C408.788 404.136 404.33 391.939 404.33 375.788V256.676H443.697V375.283C443.697 381.003 445.211 385.462 448.24 388.658C451.268 391.687 455.39 393.201 460.605 393.201C466.83 393.201 472.129 391.518 476.504 388.154L487.103 415.913C483.065 418.773 478.186 420.96 472.466 422.474C466.914 423.82 461.11 424.493 455.053 424.493ZM383.384 316.989V286.706H477.513V316.989H383.384Z" fill="white"/>
<path d="M229.849 422.474V283.678C229.849 268.368 234.391 256.171 243.476 247.086C252.561 237.833 265.515 233.206 282.339 233.206C288.059 233.206 293.527 233.795 298.742 234.973C304.126 236.151 308.668 238.001 312.369 240.525L302.023 269.041C299.835 267.527 297.396 266.349 294.704 265.508C292.012 264.667 289.152 264.246 286.124 264.246C280.404 264.246 275.946 265.929 272.749 269.293C269.721 272.49 268.207 277.369 268.207 283.93V296.548L269.216 313.456V422.474H229.849ZM208.903 320.017V289.734H303.032V320.017H208.903ZM323.725 422.474V286.706H363.093V422.474H323.725ZM343.409 267.779C336.175 267.779 330.286 265.676 325.744 261.47C321.202 257.264 318.93 252.049 318.93 245.824C318.93 239.599 321.202 234.384 325.744 230.178C330.286 225.972 336.175 223.869 343.409 223.869C350.643 223.869 356.532 225.888 361.074 229.926C365.616 233.795 367.888 238.842 367.888 245.067C367.888 251.628 365.616 257.096 361.074 261.47C356.7 265.676 350.811 267.779 343.409 267.779Z" fill="white"/>
<path d="M646.879 346.502C648.599 309.85 620.909 271.854 566.895 241.01C513.585 210.569 438.028 189.349 352.926 185.354C267.824 181.36 190.611 195.411 134.684 220.725C78.0188 246.374 46.8918 281.61 45.1716 318.262C43.4515 354.913 71.1415 392.909 125.156 423.753C178.465 454.194 254.022 475.414 339.125 479.409L338.498 492.754C165.649 484.641 28.743 406.818 31.7843 318.673L31.8266 317.635C35.9836 229.064 180.025 163.865 353.552 172.009C527.079 180.154 664.381 258.557 660.224 347.129L660.169 348.165C654.941 436.208 511.348 500.866 338.498 492.754L339.125 479.409C424.227 483.403 501.44 469.353 557.366 444.038C614.032 418.389 645.159 383.154 646.879 346.502Z" fill="white"/>
<path d="M560.481 152.596C531.102 117.515 481.062 102.941 421.224 110.638C361.563 118.312 294.122 148.065 233.633 198.725C173.144 249.384 132.017 310.556 113.99 367.945C95.9106 425.503 101.477 477.324 130.856 512.404C160.235 547.485 210.275 562.059 270.113 554.362C329.775 546.687 397.215 516.934 457.705 466.275L466.283 476.518L464.825 477.734C340.781 580.768 186.967 600.21 120.614 520.982C54.0007 441.444 100.761 292.578 225.055 188.483C349.349 84.3868 504.111 64.4789 570.724 144.017L571.499 144.953C636.971 224.719 590.092 372.829 466.283 476.518L457.705 466.275C518.194 415.616 559.321 354.444 577.348 297.055C595.427 239.497 589.861 187.676 560.481 152.596Z" fill="white"/>
<path d="M210.02 71.2733C210.298 70.4808 211.472 70.6878 211.462 71.5277L210.936 118.154C210.933 118.472 211.132 118.757 211.432 118.863L255.427 134.315C256.219 134.594 256.012 135.767 255.172 135.758L208.546 135.232C208.228 135.228 207.943 135.428 207.837 135.728L192.385 179.722C192.106 180.515 190.933 180.308 190.942 179.468L191.468 132.842C191.472 132.523 191.272 132.238 190.972 132.133L146.978 116.68C146.185 116.402 146.392 115.228 147.232 115.238L193.859 115.764C194.177 115.767 194.462 115.568 194.567 115.268L210.02 71.2733Z" fill="white"/>
<path d="M619.733 433.057C619.77 432.567 620.465 432.506 620.587 432.983L627.355 459.43C627.401 459.611 627.557 459.742 627.743 459.756L654.964 461.828C655.454 461.866 655.515 462.561 655.039 462.683L628.591 469.45C628.411 469.496 628.28 469.652 628.266 469.838L626.193 497.059C626.156 497.55 625.461 497.61 625.339 497.134L618.571 470.686C618.525 470.506 618.369 470.375 618.183 470.361L590.962 468.288C590.472 468.251 590.411 467.556 590.887 467.434L617.335 460.666C617.516 460.62 617.647 460.464 617.661 460.278L619.733 433.057Z" fill="white"/>
<path d="M554.859 584.078C548.874 584.078 542.847 583.33 536.779 581.834C530.71 580.337 525.473 578.218 521.067 575.474L529.92 556.895C533.495 559.223 537.36 561.01 541.517 562.257C545.757 563.504 549.955 564.127 554.111 564.127C558.267 564.127 561.634 563.338 564.211 561.758C566.788 560.095 568.077 557.809 568.077 554.9C568.077 553.154 567.578 551.616 566.58 550.286C565.583 548.873 563.879 547.834 561.468 547.169C559.057 546.421 555.607 546.047 551.118 546.047H527.427L531.791 495.047H587.404V514.125H540.519L553.113 503.277L550.245 537.692L537.651 526.844H556.979C565.624 526.844 572.566 528.091 577.803 530.585C583.04 532.995 586.864 536.279 589.275 540.435C591.685 544.509 592.891 549.122 592.891 554.276C592.891 559.43 591.519 564.294 588.776 568.866C586.116 573.355 582.001 577.012 576.431 579.839C570.862 582.665 563.671 584.078 554.859 584.078Z" fill="white"/>
<path d="M449.165 582.333V566.871L481.835 536.321C484.163 534.16 485.867 532.248 486.947 530.585C488.111 528.923 488.859 527.426 489.192 526.096C489.607 524.683 489.815 523.395 489.815 522.231C489.815 519.404 488.859 517.201 486.947 515.622C485.118 514.043 482.334 513.253 478.593 513.253C475.434 513.253 472.483 513.959 469.74 515.373C466.996 516.786 464.752 518.906 463.006 521.732L444.676 511.507C447.918 506.021 452.615 501.615 458.767 498.29C464.918 494.964 472.275 493.302 480.837 493.302C487.571 493.302 493.473 494.382 498.544 496.544C503.615 498.705 507.563 501.781 510.39 505.771C513.299 509.761 514.754 514.458 514.754 519.862C514.754 522.688 514.38 525.514 513.632 528.341C512.884 531.084 511.429 534.035 509.268 537.194C507.189 540.27 504.072 543.72 499.915 547.544L473.979 571.485L469.864 562.756H517.123V582.333H449.165Z" fill="white"/>
</svg>
