<svg width="1047" height="1007" viewBox="0 0 1047 1007" fill="none" xmlns="http://www.w3.org/2000/svg">
<path d="M340.485 639.746V429.569C340.485 406.386 347.363 387.916 361.12 374.159C374.877 360.147 394.494 353.141 419.97 353.141C428.632 353.141 436.911 354.033 444.809 355.816C452.961 357.599 459.84 360.402 465.445 364.223L449.777 407.405C446.465 405.112 442.771 403.329 438.695 402.055C434.619 400.781 430.288 400.144 425.702 400.144C417.04 400.144 410.289 402.692 405.449 407.787C400.863 412.628 398.57 420.016 398.57 429.951V449.058L400.099 474.662V639.746H340.485ZM308.767 484.597V438.741H451.305V484.597H308.767ZM482.641 639.746V434.155H542.255V639.746H482.641ZM512.448 405.494C501.493 405.494 492.576 402.31 485.698 395.941C478.819 389.572 475.38 381.674 475.38 372.248C475.38 362.822 478.819 354.924 485.698 348.555C492.576 342.186 501.493 339.002 512.448 339.002C523.402 339.002 532.319 342.059 539.198 348.173C546.076 354.033 549.515 361.676 549.515 371.102C549.515 381.037 546.076 389.317 539.198 395.941C532.574 402.31 523.657 405.494 512.448 405.494ZM681.509 642.803C657.307 642.803 638.454 636.689 624.952 624.461C611.45 611.977 604.699 593.507 604.699 569.05V388.68H664.313V568.286C664.313 576.948 666.605 583.699 671.191 588.539C675.777 593.125 682.018 595.418 689.916 595.418C699.342 595.418 707.367 592.87 713.991 587.775L730.041 629.811C723.926 634.141 716.538 637.453 707.877 639.746C699.47 641.784 690.68 642.803 681.509 642.803ZM572.981 480.012V434.155H715.519V480.012H572.981Z" fill="black"/>
<path d="M534.907 270.575C665.034 276.682 781.077 309.131 863.459 356.174C946.374 403.521 992.542 463.896 989.666 525.177C986.789 586.458 935.17 642.243 848.184 681.616C761.759 720.735 643.186 742.173 513.059 736.065C382.932 729.958 266.889 697.509 184.507 650.466C101.592 603.119 55.4241 542.745 58.3001 481.464C61.1763 420.183 112.796 364.398 199.781 325.025C286.207 285.905 404.779 264.468 534.907 270.575Z" stroke="black" stroke-width="20.2309"/>
<path d="M347.292 293.171C440.146 215.407 544.03 169.408 636.564 157.505C729.232 145.585 809.022 167.907 856.484 224.578C903.947 281.25 911.919 363.72 883.92 452.858C855.962 541.867 792.444 636.064 699.59 713.829C606.737 791.593 502.854 837.593 410.319 849.496C317.651 861.416 237.861 839.093 190.398 782.421C142.936 725.75 134.964 643.28 162.963 554.143C190.922 465.134 254.439 370.935 347.292 293.171Z" stroke="black" stroke-width="20.2309"/>
<path d="M318.03 107.928C318.452 106.728 320.229 107.042 320.215 108.313L319.418 178.919C319.413 179.401 319.715 179.832 320.169 179.992L386.789 203.392C387.989 203.813 387.676 205.591 386.404 205.576L315.799 204.78C315.317 204.774 314.885 205.076 314.726 205.531L291.326 272.151C290.904 273.351 289.127 273.038 289.141 271.766L289.938 201.16C289.944 200.678 289.641 200.247 289.187 200.087L222.567 176.687C221.367 176.266 221.68 174.489 222.952 174.503L293.557 175.3C294.039 175.305 294.471 175.003 294.631 174.548L318.03 107.928Z" fill="black"/>
<path d="M938.453 655.773C938.51 655.031 939.562 654.939 939.747 655.66L949.995 695.709C950.065 695.983 950.301 696.181 950.582 696.202L991.803 699.34C992.546 699.397 992.638 700.449 991.916 700.634L951.867 710.882C951.594 710.952 951.395 711.189 951.374 711.47L948.236 752.69C948.179 753.433 947.127 753.525 946.942 752.804L936.694 712.754C936.624 712.481 936.387 712.283 936.106 712.261L894.886 709.123C894.143 709.067 894.051 708.014 894.773 707.83L934.822 697.581C935.095 697.511 935.293 697.275 935.315 696.994L938.453 655.773Z" fill="black"/>
<path d="M680.164 881.819V858.405L729.635 812.143C733.16 808.871 735.741 805.975 737.377 803.458C739.139 800.94 740.272 798.674 740.776 796.66C741.405 794.52 741.72 792.569 741.72 790.807C741.72 786.527 740.272 783.191 737.377 780.799C734.608 778.407 730.391 777.211 724.726 777.211C719.943 777.211 715.474 778.281 711.32 780.421C707.166 782.561 703.767 785.771 701.123 790.051L673.366 774.568C678.276 766.26 685.388 759.588 694.703 754.553C704.019 749.517 715.159 747 728.125 747C738.321 747 747.259 748.636 754.938 751.909C762.616 755.182 768.596 759.84 772.876 765.882C777.282 771.924 779.484 779.037 779.484 787.219C779.484 791.499 778.918 795.779 777.785 800.059C776.652 804.213 774.449 808.682 771.176 813.465C768.029 818.123 763.309 823.347 757.015 829.137L717.74 865.391L711.508 852.174H783.072V881.819H680.164ZM840.216 884.462C831.152 884.462 822.026 883.329 812.837 881.064C803.647 878.798 795.717 875.588 789.045 871.434L802.451 843.299C807.864 846.824 813.718 849.53 820.012 851.418C826.432 853.307 832.789 854.251 839.083 854.251C845.377 854.251 850.475 853.055 854.378 850.663C858.28 848.146 860.231 844.684 860.231 840.278C860.231 837.634 859.476 835.306 857.965 833.292C856.455 831.152 853.874 829.578 850.223 828.571C846.573 827.438 841.349 826.872 834.551 826.872H798.675L805.284 749.643H889.498V778.533H818.501L837.572 762.106L833.229 814.221L814.158 797.793H843.426C856.517 797.793 867.029 799.681 874.959 803.458C882.89 807.108 888.68 812.081 892.331 818.375C895.981 824.543 897.807 831.529 897.807 839.334C897.807 847.139 895.73 854.503 891.575 861.426C887.547 868.224 881.316 873.762 872.882 878.042C864.448 882.322 853.559 884.462 840.216 884.462Z" fill="black"/>
</svg>
